<?xml version="1.0" encoding="UTF-8"?>
<svg id="Layer_2" data-name="Layer 2" xmlns="http://www.w3.org/2000/svg" viewBox="0 0 128.05 128">
  <defs>
    <style>
      .cls-1 {
        fill: #fff;
      }

      .cls-2 {
        fill: none;
      }
    </style>
  </defs>
  <g id="Layer_1-2" data-name="Layer 1">
    <g>
      <path d="M128.05,64c0,2.1-.1,4.19-.31,6.27-.21,2.09-.51,4.16-.92,6.21-.41,2.06-.92,4.09-1.53,6.09-.61,2.01-1.31,3.98-2.12,5.91-.8,1.94-1.7,3.83-2.69,5.68s-2.07,3.64-3.23,5.39c-1.17,1.74-2.41,3.42-3.74,5.04-1.33,1.62-2.74,3.17-4.22,4.65-1.48,1.48-3.03,2.89-4.66,4.22-1.62,1.33-3.3,2.58-5.05,3.74-1.74,1.16-3.54,2.24-5.39,3.23s-3.74,1.88-5.68,2.69c-1.94,.8-3.91,1.51-5.92,2.12s-4.04,1.12-6.09,1.53c-2.06,.41-4.13,.72-6.21,.92-2.09,.21-4.18,.31-6.28,.31s-4.19-.1-6.28-.31c-2.09-.21-4.16-.51-6.22-.92-2.06-.41-4.09-.92-6.09-1.53s-3.98-1.31-5.92-2.12c-1.94-.8-3.83-1.7-5.68-2.69-1.85-.99-3.65-2.06-5.39-3.23-1.74-1.16-3.43-2.41-5.05-3.74-1.62-1.33-3.17-2.74-4.66-4.22-1.48-1.48-2.89-3.03-4.22-4.65-1.33-1.62-2.58-3.3-3.74-5.04-1.17-1.74-2.24-3.54-3.23-5.39-.99-1.85-1.88-3.74-2.69-5.68-.8-1.94-1.51-3.91-2.12-5.91-.61-2.01-1.12-4.04-1.53-6.09-.41-2.06-.72-4.13-.92-6.21s-.31-4.18-.31-6.27,.1-4.19,.31-6.27,.51-4.16,.92-6.21c.41-2.06,.92-4.09,1.53-6.09,.61-2.01,1.31-3.98,2.12-5.91s1.7-3.83,2.69-5.68c.99-1.85,2.06-3.64,3.23-5.39,1.17-1.74,2.41-3.42,3.74-5.04,1.33-1.62,2.74-3.17,4.22-4.65,1.48-1.48,3.03-2.89,4.66-4.22,1.62-1.33,3.3-2.58,5.05-3.74,1.74-1.16,3.54-2.24,5.39-3.23,1.85-.99,3.74-1.88,5.68-2.69,1.94-.8,3.91-1.51,5.92-2.12,2.01-.61,4.04-1.12,6.09-1.53,2.06-.41,4.13-.72,6.22-.92,2.09-.21,4.18-.31,6.28-.31s4.19,.1,6.28,.31c2.09,.21,4.16,.51,6.21,.92s4.09,.92,6.09,1.53c2.01,.61,3.98,1.31,5.92,2.12,1.94,.8,3.83,1.7,5.68,2.69s3.65,2.06,5.39,3.23c1.74,1.16,3.43,2.41,5.05,3.74,1.62,1.33,3.17,2.74,4.66,4.22,1.48,1.48,2.89,3.03,4.22,4.65s2.58,3.3,3.74,5.04c1.16,1.74,2.24,3.54,3.23,5.39,.99,1.85,1.88,3.74,2.69,5.68,.8,1.94,1.51,3.91,2.12,5.91,.61,2.01,1.12,4.04,1.53,6.09,.41,2.06,.72,4.13,.92,6.21,.21,2.09,.31,4.18,.31,6.27Z"/>
      <path class="cls-1" d="M91.09,100.76H35.9V50.29c-4.76,3.16-9.08,6.02-13.8,9.16-1.51-4.51-2.99-8.78-4.33-13.1-.15-.47,.45-1.33,.91-1.8,5.36-5.43,10.74-10.83,16.17-16.18,.54-.53,1.38-1.04,2.1-1.06,4.12-.1,8.24-.05,12.31-.05,2.6,10.05,6.91,14,14.81,13.75,7.22-.22,11.55-4.58,13.46-13.75,4.15,0,8.37-.07,12.57,.06,.77,.02,1.63,.74,2.24,1.35,5.23,5.16,10.4,10.39,15.64,15.55,1.03,1.02,1.39,1.87,.84,3.35-1.43,3.84-2.64,7.76-4.02,11.89-4.64-3.09-8.97-5.97-13.7-9.11v50.41Z"/>
      <rect class="cls-2" x=".74" y="1.32" width="125.34" height="125.34"/>
    </g>
  </g>
</svg>